<?xml version="1.0" encoding="UTF-8" standalone="no"?>
<!-- Created with Inkscape (http://www.inkscape.org/) -->

<svg
   xmlns:dc="http://purl.org/dc/elements/1.1/"
   xmlns:cc="http://creativecommons.org/ns#"
   xmlns:rdf="http://www.w3.org/1999/02/22-rdf-syntax-ns#"
   xmlns:svg="http://www.w3.org/2000/svg"
   xmlns="http://www.w3.org/2000/svg"
   xmlns:sodipodi="http://sodipodi.sourceforge.net/DTD/sodipodi-0.dtd"
   xmlns:inkscape="http://www.inkscape.org/namespaces/inkscape"
   width="320"
   height="180"
   viewBox="0 0 320 180"
   id="svg2"
   version="1.1"
   inkscape:version="0.91 r13725"
   sodipodi:docname="androidtv_banner.svg"
   inkscape:export-filename="C:\Projects\TV\tv_cld\screenshots\logos\banner.png"
   inkscape:export-xdpi="90"
   inkscape:export-ydpi="90">
  <defs
     id="defs4" />
  <sodipodi:namedview
     id="base"
     pagecolor="#ffffff"
     bordercolor="#666666"
     borderopacity="1.0"
     inkscape:pageopacity="0.0"
     inkscape:pageshadow="2"
     inkscape:zoom="1.4"
     inkscape:cx="64.243637"
     inkscape:cy="113.96678"
     inkscape:document-units="px"
     inkscape:current-layer="layer2"
     showgrid="false"
     units="px"
     inkscape:window-width="1474"
     inkscape:window-height="841"
     inkscape:window-x="-8"
     inkscape:window-y="-8"
     inkscape:window-maximized="1" />
  <metadata
     id="metadata7">
    <rdf:RDF>
      <cc:Work
         rdf:about="">
        <dc:format>image/svg+xml</dc:format>
        <dc:type
           rdf:resource="http://purl.org/dc/dcmitype/StillImage" />
        <dc:title></dc:title>
      </cc:Work>
    </rdf:RDF>
  </metadata>
  <g
     inkscape:label="base"
     inkscape:groupmode="layer"
     id="layer1"
     transform="translate(0,-872.36216)"
     style="display:inline"
     sodipodi:insensitive="true">
    <rect
       style="opacity:0.98999999;fill:#ff0000;fill-opacity:1;stroke:#3c71bc;stroke-width:3.97199988;stroke-miterlimit:3.79999995;stroke-dasharray:none;stroke-dashoffset:0;stroke-opacity:1"
       id="rect4548"
       width="6120"
       height="2845.7144"
       x="-4034.2856"
       y="1772.3624" />
    <rect
       style="display:inline;opacity:0.98999999;fill:#ff0000;fill-opacity:1;stroke:#3c71bc;stroke-width:0.68586874;stroke-miterlimit:3.79999995;stroke-dasharray:none;stroke-dashoffset:0;stroke-opacity:1"
       id="rect4548-3"
       width="1029.4905"
       height="504.41019"
       x="518.01038"
       y="667.37177" />
  </g>
  <g
     inkscape:groupmode="layer"
     id="layer2"
     inkscape:label="draw"
     style="display:inline"
     transform="translate(0,-332)">
    <text
       xml:space="preserve"
       style="font-style:normal;font-variant:normal;font-weight:bold;font-stretch:normal;font-size:300.52032471px;line-height:125%;font-family:sans-serif;-inkscape-font-specification:'sans-serif, Bold';text-align:start;letter-spacing:0px;word-spacing:0px;writing-mode:lr-tb;text-anchor:start;display:inline;fill:#ffffff;fill-opacity:1;stroke:none;stroke-width:1px;stroke-linecap:butt;stroke-linejoin:miter;stroke-opacity:1"
       x="-1755.658"
       y="2435.8647"
       id="text4569-6-2-7-3-0-2-2"
       sodipodi:linespacing="125%"
       transform="scale(1.0036184,0.99639465)"><tspan
         sodipodi:role="line"
         id="tspan4571-9-4-8-8-4-5-4"
         x="-1755.658"
         y="2435.8647">LAW</tspan></text>
    <path
       style="display:inline;fill:#b1b033;fill-opacity:1;fill-rule:evenodd;stroke:#b1b033;stroke-width:25.34176826;stroke-linecap:butt;stroke-linejoin:miter;stroke-miterlimit:4;stroke-dasharray:none;stroke-opacity:1"
       d="m -1516.3851,1702.9453 -176.7342,-0.7424 c 13.9517,26.5377 54.4869,49.6977 90.318,49.1293 44.072,1.8526 86.4162,-48.3869 86.4162,-48.3869 z"
       id="path4624-4-3-5-6-5-1-1-4"
       inkscape:connector-curvature="0"
       sodipodi:nodetypes="cccc" />
    <path
       style="display:inline;fill:none;fill-rule:evenodd;stroke:#b1b033;stroke-width:25.34176826;stroke-linecap:butt;stroke-linejoin:miter;stroke-miterlimit:4;stroke-dasharray:none;stroke-opacity:1"
       d="m -1701.359,1694.9984 97.5373,-172.1636 101.4997,173.7383"
       id="path4641-7-7-98-6-2-8-2-2"
       inkscape:connector-curvature="0"
       sodipodi:nodetypes="ccc" />
    <path
       style="display:inline;fill:none;fill-rule:evenodd;stroke:#b1b033;stroke-width:25.34176826;stroke-linecap:butt;stroke-linejoin:miter;stroke-miterlimit:4;stroke-dasharray:none;stroke-opacity:1"
       d="m -1604.4312,1508.4004 132.8946,-1.5747 0,-57.7374"
       id="path4643-6-8-1-2-4-1-8-5"
       inkscape:connector-curvature="0"
       sodipodi:nodetypes="ccc" />
    <path
       style="display:inline;fill:#b1b033;fill-opacity:1;fill-rule:evenodd;stroke:#b1b033;stroke-width:25.34176826;stroke-linecap:butt;stroke-linejoin:miter;stroke-miterlimit:4;stroke-dasharray:none;stroke-opacity:1"
       d="m -1425.3038,1703.0429 176.7339,-0.7421 c -13.9517,26.5373 -54.4869,49.6977 -90.3177,49.1293 -44.0723,1.8523 -86.4162,-48.3872 -86.4162,-48.3872 z"
       id="path4624-8-6-5-4-6-3-9-3-6"
       inkscape:connector-curvature="0"
       sodipodi:nodetypes="cccc" />
    <path
       style="display:inline;fill:none;fill-rule:evenodd;stroke:#b1b033;stroke-width:25.34176826;stroke-linecap:butt;stroke-linejoin:miter;stroke-miterlimit:4;stroke-dasharray:none;stroke-opacity:1"
       d="m -1240.3302,1695.096 -97.5373,-172.1633 -101.4997,173.7379"
       id="path4641-1-9-5-87-8-7-2-9-0"
       inkscape:connector-curvature="0"
       sodipodi:nodetypes="ccc" />
    <path
       style="display:inline;fill:none;fill-rule:evenodd;stroke:#b1b033;stroke-width:25.34176826;stroke-linecap:butt;stroke-linejoin:miter;stroke-miterlimit:4;stroke-dasharray:none;stroke-opacity:1"
       d="m -1337.2577,1508.4983 -132.8946,-1.5747 0,-57.7378"
       id="path4643-9-2-6-4-8-0-3-7-53"
       inkscape:connector-curvature="0"
       sodipodi:nodetypes="ccc" />
    <flowRoot
       xml:space="preserve"
       id="flowRoot4561-7-1-1-1-8-3-6"
       style="font-style:normal;font-variant:normal;font-weight:bold;font-stretch:normal;font-size:39.99994278px;line-height:125%;font-family:sans-serif;-inkscape-font-specification:'sans-serif, Bold';text-align:start;letter-spacing:0px;word-spacing:0px;writing-mode:lr-tb;text-anchor:start;display:inline;fill:#ffffff;fill-opacity:1;stroke:none;stroke-width:1px;stroke-linecap:butt;stroke-linejoin:miter;stroke-opacity:1"
       transform="matrix(4.3459765,0,0,5.6315701,11580.034,-6486.0828)"><flowRegion
         id="flowRegion4563-6-1-4-8-5-8-6"><rect
           id="rect4565-3-6-6-8-3-7-7"
           width="238.57143"
           height="237.14285"
           x="-3065.7144"
           y="1499.1428"
           style="font-style:normal;font-variant:normal;font-weight:bold;font-stretch:normal;font-size:39.99994278px;line-height:125%;font-family:sans-serif;-inkscape-font-specification:'sans-serif, Bold';text-align:start;writing-mode:lr-tb;text-anchor:start;fill:#ffffff" /></flowRegion><flowPara
         id="flowPara4567-5-0-5-9-1-5-3">POCKET</flowPara></flowRoot>    <path
       style="display:inline;fill:#ffffff;fill-opacity:1;stroke:#222222;stroke-width:0;stroke-miterlimit:4;stroke-dasharray:none;stroke-opacity:1"
       d="m 894.44307,553.49226 c -0.2245,-6.27304 -1.6173,-70.15577 -0.8377,-145.55853 l 1.219,-117.93093 -1.5236,-15.71945 c -0.2345,-2.41946 -3.2787,-10.91706 -3.9797,-12.8313 -1.7329,-4.73357 -9.3755,-2.79468 -10.0569,-10.59383 l -8.9445,-4.46517 -112.6726,0.54662 -139.5921,-4.83725 13.4897,-12.99282 c 3.6763,-3.88932 24.3086,-10.42221 31.744,-11.33968 4.1341,-0.50998 49.2838,-8.08575 129.3287,-0.67357 l 129.2284,1.90396 0.3938,173.10134 -0.9191,145.91928 -2.2987,4.73428 -23.8661,30.64891 z"
       id="path4393-4-3-4-4-7-4-3-1-3-0-96"
       inkscape:connector-curvature="0"
       sodipodi:nodetypes="sscscsccccsscccccs" />
    <path
       style="display:inline;fill:#ffffff;fill-opacity:1;stroke:#222222;stroke-width:0;stroke-miterlimit:4;stroke-dasharray:none;stroke-opacity:1"
       d="m 873.37747,576.85432 c -0.2245,-6.2731 -1.6173,-70.15582 -0.8377,-145.55854 l 1.219,-117.93093 -1.5236,-15.71945 c -0.2345,-2.41946 -3.2787,-10.91706 -3.9796,-12.8313 -1.733,-4.73357 -9.3755,-2.79468 -10.0569,-10.59383 l -8.9445,-4.46518 -112.6727,0.54663 -139.592,-4.83726 13.4897,-12.99281 c 3.6763,-3.88932 24.3085,-10.42221 31.744,-11.33969 4.134,-0.50998 49.2837,-8.08573 129.3286,-0.67356 l 129.2284,1.90396 0.3938,173.10134 -0.9191,145.91922 -2.2987,4.7343 -23.8661,30.649 z"
       id="path4393-4-3-4-4-7-4-3-1-3-0-1-4"
       inkscape:connector-curvature="0"
       sodipodi:nodetypes="sscscsccccsscccccs" />
    <path
       style="display:inline;fill:#000080;fill-rule:evenodd;stroke:#272727;stroke-width:13.07543182;stroke-linecap:butt;stroke-linejoin:miter;stroke-miterlimit:4;stroke-dasharray:none;stroke-opacity:1"
       d="m 574.63157,246.91456 c -1.0854,-13.15566 6.6562,-29.14821 16.6293,-36.87424 10.0194,-7.762 23.4051,-14.55629 23.4051,-14.55629 0,0 13.9482,-7.53062 21.3018,-10.15692 7.3536,-2.62629 24.2084,-5.28881 24.2084,-5.28881 l 289.089,1.08226 c 0,0 6.0764,2.57993 7.2808,4.86671 1.2238,2.32368 1.9444,6.62523 1.9444,6.62523 l 0.032,329.36828 c 0,0 -0.5253,6.30307 -3.1515,7.35362 -2.6263,1.05048 -8.4042,3.67677 -8.4042,3.67677 l -19.9598,0.52528 0.2787,-322.15389 -254.2218,-0.0468 -19.935,2.50671 -18.041,5.08322 -13.9402,8.12497 c 0,0 -7.1204,4.45068 -8.2167,8.14911 -0.8168,2.75525 -1.3915,3.94278 1.8239,8.42613 2.904,4.04928 19.1587,3.64492 19.1587,3.64492 l 65.6571,0 177.537,0 c 0,0 10.5051,3.15151 11.0303,5.7778 0.5253,2.6263 3.6768,9.97985 3.6768,9.97985 l -1.0505,324.60915 c 0,0 -1.0505,8.4041 -3.6768,9.4546 -2.6262,1.0505 -6.8284,3.6768 -6.8284,3.6768 l -296.7703,0 c 0,0 -3.6768,-1.5758 -6.3031,-4.2021 -2.6263,-2.6263 -4.202,-8.4041 -4.202,-8.4041 3.9209,-112.04025 1.6481,-341.24869 1.6481,-341.24869 z"
       id="path4264-4-5-8-6-4-0-5-5-8-6-2-1-3-1"
       inkscape:connector-curvature="0"
       sodipodi:nodetypes="cscsccsccscccccccsscccsccsccsccc" />
    <path
       style="display:inline;fill:#ff0000;fill-rule:evenodd;stroke:none;stroke-width:1px;stroke-linecap:butt;stroke-linejoin:miter;stroke-opacity:1"
       d="m 729.46527,538.25478 2.8786,-49.51197 -76.571,12.09012 12.6659,-22.45308 -50.6635,-57.57213 22.4531,-5.18144 -5.7572,-29.36185 30.5133,5.1815 8.0601,-22.45311 32.2403,37.42188 -23.0288,-84.05525 21.8774,4.60569 32.4956,-34.60634 30.5619,34.41032 21.8774,-4.60575 -23.0288,84.05528 32.2404,-37.42185 8.0601,22.45312 30.5132,-5.18142 -5.7572,29.36177 22.4531,5.1814 -50.6635,57.57217 12.6659,22.45308 -76.5709,-12.09008 2.8786,49.51196 -6.197,-0.47774 z"
       id="path3338-1"
       inkscape:connector-curvature="0"
       sodipodi:nodetypes="ccccccccccccccccccccccccccc" />
    <path
       style="display:inline;fill:#ffffff;fill-opacity:0.99607843;fill-rule:evenodd;stroke:#fbfbfb;stroke-width:7.20402622;stroke-linecap:butt;stroke-linejoin:miter;stroke-miterlimit:4;stroke-dasharray:none;stroke-opacity:0.99934645"
       d="m 722.71297,448.80807 -50.5672,-0.2096 c 3.9919,7.49508 15.5899,14.03608 25.8418,13.87549 12.6099,0.52327 24.7254,-13.66589 24.7254,-13.66589 z"
       id="path4624-4-3-5-6-5-1-1-4-6-0"
       inkscape:connector-curvature="0"
       sodipodi:nodetypes="cccc" />
    <path
       style="display:inline;fill:none;fill-rule:evenodd;stroke:#fbfbfb;stroke-width:8.94120407;stroke-linecap:butt;stroke-linejoin:miter;stroke-miterlimit:4;stroke-dasharray:none;stroke-opacity:0.99934645"
       d="m 669.78827,446.56364 27.9074,-48.62416 29.0411,49.06895"
       id="path4641-7-7-98-6-2-8-2-2-7-1"
       inkscape:connector-curvature="0"
       sodipodi:nodetypes="ccc" />
    <path
       style="display:inline;fill:none;fill-rule:evenodd;stroke:#fbfbfb;stroke-width:8.94120407;stroke-linecap:butt;stroke-linejoin:miter;stroke-miterlimit:4;stroke-dasharray:none;stroke-opacity:0.99934645"
       d="m 697.52127,393.86274 38.0238,-0.44478 0,-16.3068"
       id="path4643-6-8-1-2-4-1-8-5-7-4"
       inkscape:connector-curvature="0"
       sodipodi:nodetypes="ccc" />
    <path
       style="display:inline;fill:#ffffff;fill-opacity:0.99607843;fill-rule:evenodd;stroke:#fbfbfb;stroke-width:7.20402622;stroke-linecap:butt;stroke-linejoin:miter;stroke-miterlimit:4;stroke-dasharray:none;stroke-opacity:0.99934645"
       d="m 748.77327,448.83568 50.567,-0.20963 c -3.9918,7.49496 -15.5897,14.03611 -25.8417,13.87567 -12.6099,0.52312 -24.7253,-13.66604 -24.7253,-13.66604 z"
       id="path4624-8-6-5-4-6-3-9-3-6-1-7"
       inkscape:connector-curvature="0"
       sodipodi:nodetypes="cccc" />
    <path
       style="display:inline;fill:none;fill-rule:evenodd;stroke:#fbfbfb;stroke-width:8.94120407;stroke-linecap:butt;stroke-linejoin:miter;stroke-miterlimit:4;stroke-dasharray:none;stroke-opacity:0.99934645"
       d="m 801.69787,446.59125 -27.9074,-48.62423 -29.0411,49.06891"
       id="path4641-1-9-5-87-8-7-2-9-0-9-2"
       inkscape:connector-curvature="0"
       sodipodi:nodetypes="ccc" />
    <path
       style="display:inline;fill:none;fill-rule:evenodd;stroke:#fbfbfb;stroke-width:8.94120407;stroke-linecap:butt;stroke-linejoin:miter;stroke-miterlimit:4;stroke-dasharray:none;stroke-opacity:0.99934645"
       d="m 773.96497,393.89029 -38.0238,-0.44468 0,-16.30687"
       id="path4643-9-2-6-4-8-0-3-7-53-6-1"
       inkscape:connector-curvature="0"
       sodipodi:nodetypes="ccc" />
    <text
       xml:space="preserve"
       style="font-style:normal;font-variant:normal;font-weight:bold;font-stretch:normal;font-size:114.27205658px;line-height:125%;font-family:'Adobe Gothic Std';-inkscape-font-specification:'Adobe Gothic Std, Bold';text-align:start;letter-spacing:0px;word-spacing:0px;writing-mode:lr-tb;text-anchor:start;display:inline;fill:#000080;fill-opacity:1;stroke:none;stroke-width:1px;stroke-linecap:butt;stroke-linejoin:miter;stroke-opacity:1"
       x="1204.1849"
       y="459.55579"
       id="text4668-2-9"
       sodipodi:linespacing="125%"
       transform="scale(0.82245629,1.2158701)"><tspan
         sodipodi:role="line"
         id="tspan4674-1-0"
         x="1204.1849"
         y="459.55579">DICTIONARY</tspan></text>
    <text
       xml:space="preserve"
       style="font-style:normal;font-variant:normal;font-weight:bold;font-stretch:normal;font-size:114.27101135px;line-height:125%;font-family:'Adobe Gothic Std';-inkscape-font-specification:'Adobe Gothic Std, Bold';text-align:start;letter-spacing:0px;word-spacing:0px;writing-mode:lr-tb;text-anchor:start;display:inline;fill:#000080;fill-opacity:1;stroke:none;stroke-width:1px;stroke-linecap:butt;stroke-linejoin:miter;stroke-opacity:1"
       x="1205.7509"
       y="350.44485"
       id="text4668-2-9-1"
       sodipodi:linespacing="125%"
       transform="scale(0.82245629,1.2158701)"><tspan
         sodipodi:role="line"
         id="tspan4600"
         x="1205.7509"
         y="350.44485">LEGAL</tspan></text>
    <text
       xml:space="preserve"
       style="font-style:normal;font-variant:normal;font-weight:bold;font-stretch:normal;font-size:114.27101135px;line-height:125%;font-family:'Adobe Gothic Std';-inkscape-font-specification:'Adobe Gothic Std, Bold';text-align:start;letter-spacing:0px;word-spacing:0px;writing-mode:lr-tb;text-anchor:start;display:inline;fill:#000080;fill-opacity:1;stroke:none;stroke-width:1px;stroke-linecap:butt;stroke-linejoin:miter;stroke-opacity:1"
       x="1207.2511"
       y="243.8929"
       id="text4668-2-9-10"
       sodipodi:linespacing="125%"
       transform="scale(0.82245629,1.2158701)"><tspan
         sodipodi:role="line"
         id="tspan4598"
         x="1207.2511"
         y="243.8929">CANADIAN</tspan></text>
    <text
       xml:space="preserve"
       style="font-style:normal;font-variant:normal;font-weight:bold;font-stretch:normal;font-size:114.27205658px;line-height:125%;font-family:'Adobe Gothic Std';-inkscape-font-specification:'Adobe Gothic Std, Bold';text-align:start;letter-spacing:0px;word-spacing:0px;writing-mode:lr-tb;text-anchor:start;display:inline;fill:#ffffff;fill-opacity:1;stroke:none;stroke-width:1px;stroke-linecap:butt;stroke-linejoin:miter;stroke-opacity:1"
       x="1199.9302"
       y="460.82129"
       id="text4668-2-9-2"
       sodipodi:linespacing="125%"
       transform="scale(0.82245629,1.2158701)"><tspan
         sodipodi:role="line"
         id="tspan4674-1-0-1"
         x="1199.9302"
         y="460.82129">DICTIONARY</tspan></text>
    <text
       xml:space="preserve"
       style="font-style:normal;font-variant:normal;font-weight:bold;font-stretch:normal;font-size:114.27101135px;line-height:125%;font-family:'Adobe Gothic Std';-inkscape-font-specification:'Adobe Gothic Std, Bold';text-align:start;letter-spacing:0px;word-spacing:0px;writing-mode:lr-tb;text-anchor:start;display:inline;fill:#ffffff;fill-opacity:1;stroke:none;stroke-width:1px;stroke-linecap:butt;stroke-linejoin:miter;stroke-opacity:1"
       x="1201.4961"
       y="351.71039"
       id="text4668-2-9-1-6"
       sodipodi:linespacing="125%"
       transform="scale(0.82245629,1.2158701)"><tspan
         sodipodi:role="line"
         id="tspan4600-3"
         x="1201.4961"
         y="351.71039">LEGAL</tspan></text>
    <text
       xml:space="preserve"
       style="font-style:normal;font-variant:normal;font-weight:bold;font-stretch:normal;font-size:114.27101135px;line-height:125%;font-family:'Adobe Gothic Std';-inkscape-font-specification:'Adobe Gothic Std, Bold';text-align:start;letter-spacing:0px;word-spacing:0px;writing-mode:lr-tb;text-anchor:start;display:inline;fill:#ffffff;fill-opacity:1;stroke:none;stroke-width:1px;stroke-linecap:butt;stroke-linejoin:miter;stroke-opacity:1"
       x="1202.9965"
       y="245.15842"
       id="text4668-2-9-10-8"
       sodipodi:linespacing="125%"
       transform="scale(0.82245629,1.2158701)"><tspan
         sodipodi:role="line"
         id="tspan4598-8"
         x="1202.9965"
         y="245.15842">CANADIAN</tspan></text>
    <rect
       style="display:inline;opacity:0.98999999;fill:#ff0000;fill-opacity:1;stroke:#3c71bc;stroke-width:0.23283784;stroke-miterlimit:3.79999995;stroke-dasharray:none;stroke-dashoffset:0;stroke-opacity:1"
       id="rect4548-3-7"
       width="325.65781"
       height="183.76796"
       x="-2.114579"
       y="331.37793" />
    <path
       style="display:inline;fill:#ffffff;fill-opacity:1;stroke:#222222;stroke-width:0;stroke-miterlimit:4;stroke-dasharray:none;stroke-opacity:1"
       d="m 111.19125,481.22816 c -0.0703,-1.96329 -0.50615,-21.95673 -0.26217,-45.55562 l 0.38152,-36.90896 -0.47685,-4.91973 c -0.0734,-0.75723 -1.02614,-3.41673 -1.24553,-4.01583 -0.54235,-1.48147 -2.93426,-0.87466 -3.14751,-3.31556 l -2.79937,-1.39747 -35.263251,0.17107 -43.688288,-1.51391 4.22189,-4.06638 c 1.150577,-1.21724 7.607888,-3.26185 9.934951,-3.54899 1.293849,-0.1596 15.424406,-2.5306 40.476135,-0.21081 l 40.444733,0.59589 0.12325,54.1757 -0.28765,45.6685 -0.71943,1.48171 -7.4694,9.59221 z"
       id="path4393-4-3-4-4-7-4-3-1-3-0-96-9"
       inkscape:connector-curvature="0"
       sodipodi:nodetypes="sscscsccccsscccccs" />
    <path
       style="display:inline;fill:#ffffff;fill-opacity:1;stroke:#222222;stroke-width:0;stroke-miterlimit:4;stroke-dasharray:none;stroke-opacity:1"
       d="m 104.59834,488.5398 c -0.0703,-1.9633 -0.50617,-21.95674 -0.26217,-45.55561 l 0.3815,-36.90897 -0.47683,-4.91973 c -0.0734,-0.75722 -1.02615,-3.41672 -1.2455,-4.01583 -0.54239,-1.48146 -2.93427,-0.87465 -3.14753,-3.31555 l -2.79935,-1.39748 -35.263295,0.17107 -43.68825,-1.51391 4.22188,-4.06637 c 1.150578,-1.21725 7.60786,-3.26185 9.934952,-3.54899 1.293829,-0.15962 15.424377,-2.53061 40.476106,-0.21082 l 40.444737,0.59589 0.12325,54.1757 -0.28766,45.6685 -0.71943,1.4817 -7.46939,9.59224 z"
       id="path4393-4-3-4-4-7-4-3-1-3-0-1-4-3"
       inkscape:connector-curvature="0"
       sodipodi:nodetypes="sscscsccccsscccccs" />
    <path
       style="display:inline;fill:#000080;fill-rule:evenodd;stroke:#272727;stroke-width:4.09223127;stroke-linecap:butt;stroke-linejoin:miter;stroke-miterlimit:4;stroke-dasharray:none;stroke-opacity:1"
       d="m 11.099541,385.27821 c -0.339702,-4.11734 2.083193,-9.12254 5.204489,-11.54057 3.135779,-2.42928 7.325112,-4.5557 7.325112,-4.5557 0,0 4.365384,-2.35686 6.666849,-3.17883 2.301466,-0.82194 7.576531,-1.65524 7.576531,-1.65524 l 90.476468,0.33873 c 0,0 1.90174,0.80743 2.27867,1.52313 0.38303,0.72725 0.60855,2.07351 0.60855,2.07351 l 0.0104,103.08272 c 0,0 -0.16441,1.97269 -0.98632,2.30148 -0.82196,0.32876 -2.63027,1.15073 -2.63027,1.15073 l -6.24685,0.16439 0.0872,-100.82484 -79.564048,-0.0146 -6.239078,0.78453 -5.646309,1.5909 -4.362886,2.54288 c 0,0 -2.22848,1.39294 -2.57159,2.55043 -0.255631,0.86232 -0.435498,1.23399 0.57083,2.63715 0.908869,1.26731 5.99612,1.14075 5.99612,1.14075 l 20.548775,0 55.563926,0 c 0,0 3.28778,0.98632 3.45216,1.80828 0.1644,0.82196 1.15074,3.12341 1.15074,3.12341 l -0.32878,101.59325 c 0,0 -0.32878,2.63025 -1.15074,2.95902 -0.82192,0.32878 -2.13709,1.15073 -2.13709,1.15073 l -92.880497,0 c 0,0 -1.150723,-0.49317 -1.972683,-1.31513 -0.82195,-0.82196 -1.3151,-2.63024 -1.3151,-2.63024 1.227127,-35.06535 0.515804,-106.80095 0.515804,-106.80095 z"
       id="path4264-4-5-8-6-4-0-5-5-8-6-2-1-3-1-9"
       inkscape:connector-curvature="0"
       sodipodi:nodetypes="cscsccsccscccccccsscccsccsccsccc" />
    <path
       style="display:inline;fill:#ff0000;fill-rule:evenodd;stroke:none;stroke-width:1px;stroke-linecap:butt;stroke-linejoin:miter;stroke-opacity:1"
       d="m 59.558002,476.45926 0.90092,-15.49581 -23.964504,3.78386 3.964052,-7.02716 -15.856206,-18.01842 7.027172,-1.62164 -1.801839,-9.18941 9.549786,1.62166 2.522574,-7.02717 10.090276,11.71197 -7.207341,-26.30687 6.846988,1.44146 10.170184,-10.83079 9.564986,10.76943 6.846997,-1.44146 -7.20735,26.30687 10.090315,-11.71197 2.522574,7.02718 9.54975,-1.62164 -1.801841,9.18939 7.027165,1.62164 -15.856199,18.01841 3.964061,7.02717 -23.964476,-3.78385 0.90092,15.4958 -1.939486,-0.14951 z"
       id="path3338-1-6"
       inkscape:connector-curvature="0"
       sodipodi:nodetypes="ccccccccccccccccccccccccccc" />
    <path
       style="display:inline;fill:#ffffff;fill-opacity:0.99607843;fill-rule:evenodd;stroke:#fbfbfb;stroke-width:2.25465155;stroke-linecap:butt;stroke-linejoin:miter;stroke-miterlimit:4;stroke-dasharray:none;stroke-opacity:0.99934645"
       d="m 57.444729,448.46503 -15.826069,-0.0656 c 1.249346,2.34574 4.879184,4.39288 8.087737,4.34263 3.946528,0.16377 7.738332,-4.27702 7.738332,-4.27702 z"
       id="path4624-4-3-5-6-5-1-1-4-6-0-6"
       inkscape:connector-curvature="0"
       sodipodi:nodetypes="cccc" />
    <path
       style="display:inline;fill:none;fill-rule:evenodd;stroke:#fbfbfb;stroke-width:2.79833794;stroke-linecap:butt;stroke-linejoin:miter;stroke-miterlimit:4;stroke-dasharray:none;stroke-opacity:0.99934645"
       d="m 40.88083,447.76259 8.734205,-15.21796 9.08902,15.35717"
       id="path4641-7-7-98-6-2-8-2-2-7-1-1"
       inkscape:connector-curvature="0"
       sodipodi:nodetypes="ccc" />
    <path
       style="display:inline;fill:none;fill-rule:evenodd;stroke:#fbfbfb;stroke-width:2.79833794;stroke-linecap:butt;stroke-linejoin:miter;stroke-miterlimit:4;stroke-dasharray:none;stroke-opacity:0.99934645"
       d="m 49.560453,431.26874 11.900345,-0.13921 0,-5.10355"
       id="path4643-6-8-1-2-4-1-8-5-7-4-3"
       inkscape:connector-curvature="0"
       sodipodi:nodetypes="ccc" />
    <path
       style="display:inline;fill:#ffffff;fill-opacity:0.99607843;fill-rule:evenodd;stroke:#fbfbfb;stroke-width:2.25465155;stroke-linecap:butt;stroke-linejoin:miter;stroke-miterlimit:4;stroke-dasharray:none;stroke-opacity:0.99934645"
       d="m 65.600843,448.47367 15.826011,-0.0656 c -1.249317,2.34571 -4.879126,4.3929 -8.087708,4.34268 -3.946528,0.16373 -7.738303,-4.27706 -7.738303,-4.27706 z"
       id="path4624-8-6-5-4-6-3-9-3-6-1-7-2"
       inkscape:connector-curvature="0"
       sodipodi:nodetypes="cccc" />
    <path
       style="display:inline;fill:none;fill-rule:evenodd;stroke:#fbfbfb;stroke-width:2.79833794;stroke-linecap:butt;stroke-linejoin:miter;stroke-miterlimit:4;stroke-dasharray:none;stroke-opacity:0.99934645"
       d="M 82.164714,447.77124 73.430508,432.55325 64.341477,447.9104"
       id="path4641-1-9-5-87-8-7-2-9-0-9-2-7"
       inkscape:connector-curvature="0"
       sodipodi:nodetypes="ccc" />
    <path
       style="display:inline;fill:none;fill-rule:evenodd;stroke:#fbfbfb;stroke-width:2.79833794;stroke-linecap:butt;stroke-linejoin:miter;stroke-miterlimit:4;stroke-dasharray:none;stroke-opacity:0.99934645"
       d="m 73.48512,431.27736 -11.900346,-0.13918 0,-5.10358"
       id="path4643-9-2-6-4-8-0-3-7-53-6-1-1"
       inkscape:connector-curvature="0"
       sodipodi:nodetypes="ccc" />
    <text
       xml:space="preserve"
       style="font-style:normal;font-variant:normal;font-weight:bold;font-stretch:normal;font-size:37.27832031px;line-height:125%;font-family:'Adobe Gothic Std';-inkscape-font-specification:'Adobe Gothic Std, Bold';text-align:start;letter-spacing:0px;word-spacing:0px;writing-mode:lr-tb;text-anchor:start;display:inline;fill:#000080;fill-opacity:1;stroke:none;stroke-width:1px;stroke-linecap:butt;stroke-linejoin:miter;stroke-opacity:1"
       x="166.45367"
       y="398.24731"
       id="text4668-2-9-9"
       sodipodi:linespacing="125%"
       transform="scale(0.82245629,1.2158701)"><tspan
         sodipodi:role="line"
         id="tspan4674-1-0-9"
         x="166.45367"
         y="398.24731">DICTIONARY</tspan></text>
    <text
       xml:space="preserve"
       style="font-style:normal;font-variant:normal;font-weight:bold;font-stretch:normal;font-size:37.2779808px;line-height:125%;font-family:'Adobe Gothic Std';-inkscape-font-specification:'Adobe Gothic Std, Bold';text-align:start;letter-spacing:0px;word-spacing:0px;writing-mode:lr-tb;text-anchor:start;display:inline;fill:#000080;fill-opacity:1;stroke:none;stroke-width:1px;stroke-linecap:butt;stroke-linejoin:miter;stroke-opacity:1"
       x="167.83298"
       y="364.41507"
       id="text4668-2-9-1-68"
       sodipodi:linespacing="125%"
       transform="scale(0.82245629,1.2158701)"><tspan
         sodipodi:role="line"
         id="tspan4600-4"
         x="167.83298"
         y="364.41507">LEGAL</tspan></text>
    <text
       xml:space="preserve"
       style="font-style:normal;font-variant:normal;font-weight:bold;font-stretch:normal;font-size:37.2779808px;line-height:125%;font-family:'Adobe Gothic Std';-inkscape-font-specification:'Adobe Gothic Std, Bold';text-align:start;letter-spacing:0px;word-spacing:0px;writing-mode:lr-tb;text-anchor:start;display:inline;fill:#000080;fill-opacity:1;stroke:none;stroke-width:1px;stroke-linecap:butt;stroke-linejoin:miter;stroke-opacity:1"
       x="168.3224"
       y="329.65521"
       id="text4668-2-9-10-84"
       sodipodi:linespacing="125%"
       transform="scale(0.82245629,1.2158701)"><tspan
         sodipodi:role="line"
         id="tspan4598-3"
         x="168.3224"
         y="329.65521">CANADIAN</tspan></text>
    <text
       xml:space="preserve"
       style="font-style:normal;font-variant:normal;font-weight:bold;font-stretch:normal;font-size:37.27832031px;line-height:125%;font-family:'Adobe Gothic Std';-inkscape-font-specification:'Adobe Gothic Std, Bold';text-align:start;letter-spacing:0px;word-spacing:0px;writing-mode:lr-tb;text-anchor:start;display:inline;fill:#ffffff;fill-opacity:1;stroke:none;stroke-width:1px;stroke-linecap:butt;stroke-linejoin:miter;stroke-opacity:1"
       x="167.23683"
       y="398.66016"
       id="text4668-2-9-2-0"
       sodipodi:linespacing="125%"
       transform="scale(0.82245629,1.2158701)"><tspan
         sodipodi:role="line"
         id="tspan4674-1-0-1-1"
         x="167.23683"
         y="398.66016">DICTIONARY</tspan></text>
    <text
       xml:space="preserve"
       style="font-style:normal;font-variant:normal;font-weight:bold;font-stretch:normal;font-size:37.2779808px;line-height:125%;font-family:'Adobe Gothic Std';-inkscape-font-specification:'Adobe Gothic Std, Bold';text-align:start;letter-spacing:0px;word-spacing:0px;writing-mode:lr-tb;text-anchor:start;display:inline;fill:#ffffff;fill-opacity:1;stroke:none;stroke-width:1px;stroke-linecap:butt;stroke-linejoin:miter;stroke-opacity:1"
       x="168.61617"
       y="364.53418"
       id="text4668-2-9-1-6-2"
       sodipodi:linespacing="125%"
       transform="scale(0.82245629,1.2158701)"><tspan
         sodipodi:role="line"
         id="tspan4600-3-3"
         x="168.61617"
         y="364.53418">LEGAL</tspan></text>
    <text
       xml:space="preserve"
       style="font-style:normal;font-variant:normal;font-weight:bold;font-stretch:normal;font-size:37.2779808px;line-height:125%;font-family:'Adobe Gothic Std';-inkscape-font-specification:'Adobe Gothic Std, Bold';text-align:start;letter-spacing:0px;word-spacing:0px;writing-mode:lr-tb;text-anchor:start;display:inline;fill:#ffffff;fill-opacity:1;stroke:none;stroke-width:1px;stroke-linecap:butt;stroke-linejoin:miter;stroke-opacity:1"
       x="169.10562"
       y="329.77432"
       id="text4668-2-9-10-8-1"
       sodipodi:linespacing="125%"
       transform="scale(0.82245629,1.2158701)"><tspan
         sodipodi:role="line"
         id="tspan4598-8-5"
         x="169.10562"
         y="329.77432">CANADIAN</tspan></text>
  </g>
</svg>
